<?xml version="1.0" encoding="UTF-8"?>
<!DOCTYPE svg PUBLIC "-//W3C//DTD SVG 1.1//EN" "http://www.w3.org/Graphics/SVG/1.1/DTD/svg11.dtd">
<!-- Creator: CorelDRAW 2019 (64-Bit Wersja próbna) -->
<svg xmlns="http://www.w3.org/2000/svg" xml:space="preserve" width="210mm" height="70mm" version="1.1" style="shape-rendering:geometricPrecision; text-rendering:geometricPrecision; image-rendering:optimizeQuality; fill-rule:evenodd; clip-rule:evenodd"
viewBox="0 0 21000 7000"
 xmlns:xlink="http://www.w3.org/1999/xlink"
 xmlns:xodm="http://www.corel.com/coreldraw/odm/2003">
 <defs>
  <style type="text/css">
   <![CDATA[
    .str4 {stroke:#5084B4;stroke-width:141.11;stroke-miterlimit:22.9256}
    .str3 {stroke:#5084B4;stroke-width:52.92;stroke-miterlimit:22.9256}
    .str2 {stroke:#5084B4;stroke-width:264.58;stroke-linecap:round;stroke-miterlimit:22.9256}
    .str0 {stroke:#5084B4;stroke-width:423.33;stroke-linecap:round;stroke-miterlimit:9.488}
    .str1 {stroke:#5084B4;stroke-width:264.58;stroke-miterlimit:22.9256}
    .fil0 {fill:none}
    .fil2 {fill:none;fill-rule:nonzero}
    .fil1 {fill:black;fill-rule:nonzero}
   ]]>
  </style>
 </defs>
 <g id="Warstwa_x0020_1">
  <metadata id="CorelCorpID_0Corel-Layer"/>
  <g id="_862074864">
   <polygon class="fil0 str0" points="3186.72,694.81 4439.85,1399.69 5692.97,2104.58 5692.97,3514.34 5692.97,4924.11 4439.85,5629 3186.72,6333.88 1933.58,5629 680.46,4924.11 680.46,3514.34 680.46,2104.58 1933.58,1399.69 "/>
   <line class="fil0 str1" x1="1343.49" y1="1873.73" x2="3478.69" y2= "3014.11" />
   <line class="fil0 str1" x1="2583.44" y1="3877.7" x2="5165.2" y2= "5215.44" />
   <path class="fil0 str2" d="M2169.47 3221.32c242.23,0 438.59,196.37 438.59,438.6 0,242.22 -196.36,438.59 -438.59,438.59 -242.24,0 -438.6,-196.37 -438.6,-438.59 0,-242.23 196.36,-438.6 438.6,-438.6z"/>
   <path class="fil0 str2" d="M3815.58 2749.87c242.24,0 438.6,196.37 438.6,438.6 0,242.22 -196.36,438.59 -438.6,438.59 -242.23,0 -438.59,-196.37 -438.59,-438.59 0,-242.23 196.36,-438.6 438.59,-438.6z"/>
   <path class="fil1 str3" d="M9255.67 6498.68l0 -338.81c15.17,1.97 30.89,3.44 47.18,4.42 16.84,0.98 38.18,1.47 64.57,1.47 94.35,0 164.53,-19.64 211.71,-58.43 47.17,-38.79 70.75,-96.73 70.75,-174.31 0,-5.89 -1.12,-13.26 -3.37,-21.61 -2.24,-8.83 -3.92,-15.71 -6.18,-21.6l-644.65 -1583.06 526.17 0 376.23 1128.37 366.7 -1128.37 503.15 0 -735.07 1844.77c-54.47,138.47 -122.98,232.75 -205.53,283.32 -81.99,50.58 -205.52,75.62 -369.5,75.62 -29.77,0 -61.77,-0.98 -95.46,-2.94 -34.26,-1.97 -69.63,-4.91 -106.7,-8.84zm1637.49 -1137.21l478.44 0c4.49,79.54 37.06,138.47 98.83,177.26 61.21,38.79 153.3,58.43 275.72,58.43 93.22,0 165.09,-13.75 216.19,-40.76 51.11,-27.49 76.37,-66.28 76.37,-115.88 0,-70.7 -95.46,-124.23 -285.83,-159.58 -78.05,-14.24 -139.82,-26.52 -185.87,-37.32 -232.48,-51.56 -393.64,-112.93 -484.05,-184.13 -90.41,-71.2 -135.9,-166.95 -135.9,-287.74 0,-160.07 66.27,-287.25 198.24,-380.54 131.96,-93.79 311.09,-140.44 536.83,-140.44 239.22,0 426.78,46.65 563.24,139.94 136.45,93.3 208.89,224.4 217.88,393.31l-464.97 0c-3.37,-66.28 -32.01,-117.84 -86.48,-154.18 -54.47,-36.82 -129.71,-54.99 -226.3,-54.99 -90.97,0 -158.92,11.78 -203.28,35.84 -44.36,24.06 -66.82,60.4 -66.82,108.03 0,62.36 119.05,117.84 357.14,165.96 55.03,10.32 98.28,19.15 130.29,25.54 237.53,49.1 399.82,108.02 486.85,176.77 87.04,69.23 130.84,166.45 130.84,291.66 0,177.75 -71.31,312.79 -214.51,406.08 -143.19,92.8 -351.53,139.45 -624.44,139.45 -247.08,0 -440.26,-48.61 -579.52,-145.34 -139.27,-96.73 -208.89,-230.29 -208.89,-400.19l0 -17.18zm2735.3 521.46c-43.8,0.99 -96.59,2.46 -157.23,4.91 -61.21,2.46 -99.96,3.93 -116.24,3.93 -183.63,0 -308.85,-29.95 -376.81,-89.85 -67.38,-59.91 -101.07,-178.25 -101.07,-355.01l0 -845.55 -236.41 0 0 -294.61 236.41 0 0 -427.19 475.07 0 0 427.19 276.28 0 0 294.61 -276.28 0 0 865.68c0,41.24 10.67,68.25 31.44,81.02 20.78,13.25 63.46,19.64 128.04,19.64l116.8 0 0 315.23zm1377.48 -486.11l478.44 0c-48.29,164.99 -145.43,293.63 -292,387.42 -146.57,93.29 -325.14,139.94 -536.28,139.94 -258.88,0 -464.41,-76.11 -615.46,-227.83 -151.62,-152.22 -227.43,-358.45 -227.43,-618.2 0,-256.32 74.69,-458.13 223.5,-605.93 149.36,-147.79 353.22,-221.45 612.09,-221.45 274.6,0 486.29,72.67 635.68,218.02 148.81,145.34 223.48,352.55 223.48,621.14 0,29.95 0,52.05 -0.56,67.27 -0.56,14.73 -2.24,28.97 -3.92,42.23l-1194.98 0c6.74,122.76 40.99,215.56 102.76,277.92 61.78,62.36 151.06,93.29 267.3,93.29 82.54,0 149.94,-14.24 202.16,-42.22 52.79,-28.48 94.34,-72.18 125.22,-131.6zm-697.44 -471.38l704.18 0c-4.49,-105.57 -36.5,-186.1 -96.02,-241.09 -60.09,-55.49 -146.01,-82.99 -257.75,-82.99 -103.89,0 -185.87,27.99 -245.96,83.48 -59.53,55.97 -94.34,136.01 -104.45,240.6zm1515.62 945.71l0 -1564.4 453.74 0 0 172.84c66.82,-71.69 141.51,-126.19 224.06,-162.53 81.98,-36.33 173.51,-54.5 273.46,-54.5 112.88,0 209.47,18.66 289.77,55.48 79.74,36.83 149.94,94.77 208.89,174.32 62.34,-76.6 136.46,-134.05 222.38,-172.35 85.35,-38.3 180.82,-57.45 285.83,-57.45 179.7,0 322.33,46.15 427.9,137.98 105.01,92.31 157.8,217.52 157.8,377.1l0 1093.51 -471.7 0 0 -1007.58c0,-75.62 -23.6,-134.54 -70.2,-176.28 -46.62,-41.73 -111.18,-62.36 -194.86,-62.36 -93.22,0 -167.34,26.52 -221.81,80.04 -55.03,53.03 -82.55,125.7 -82.55,218.01l0 948.17 -468.33 0 0 -1004.63c0,-76.6 -23.03,-136.02 -68.51,-178.25 -45.48,-42.22 -108.94,-63.34 -191.49,-63.34 -93.22,0 -166.78,27.01 -221.25,80.53 -54.47,54.01 -81.43,127.18 -81.43,220.47l0 945.22 -471.7 0zm2853.8 -509.68l478.44 0c4.49,79.54 37.06,138.47 98.83,177.26 61.21,38.79 153.3,58.43 275.72,58.43 93.21,0 165.09,-13.75 216.19,-40.76 51.11,-27.49 76.37,-66.28 76.37,-115.88 0,-70.7 -95.46,-124.23 -285.83,-159.58 -78.05,-14.24 -139.82,-26.52 -185.87,-37.32 -232.48,-51.56 -393.64,-112.93 -484.06,-184.13 -90.4,-71.2 -135.89,-166.95 -135.89,-287.74 0,-160.07 66.27,-287.25 198.23,-380.54 131.97,-93.79 311.09,-140.44 536.84,-140.44 239.22,0 426.78,46.65 563.24,139.94 136.45,93.3 208.89,224.4 217.88,393.31l-464.97 0c-3.37,-66.28 -32.01,-117.84 -86.48,-154.18 -54.47,-36.82 -129.71,-54.99 -226.3,-54.99 -90.98,0 -158.92,11.78 -203.28,35.84 -44.36,24.06 -66.82,60.4 -66.82,108.03 0,62.36 119.05,117.84 357.14,165.96 55.03,10.32 98.27,19.15 130.28,25.54 237.54,49.1 399.83,108.02 486.86,176.77 87.04,69.23 130.84,166.45 130.84,291.66 0,177.75 -71.31,312.79 -214.51,406.08 -143.19,92.8 -351.53,139.45 -624.44,139.45 -247.09,0 -440.26,-48.61 -579.52,-145.34 -139.27,-96.73 -208.89,-230.29 -208.89,-400.19l0 -17.18z"/>
   <polygon class="fil1 str3" points="6893.61,2915.46 6893.61,499.95 7423.39,499.95 8423.08,2159.56 8423.08,499.95 8922.63,499.95 8922.63,2915.46 8399.69,2915.46 7393.17,1255.85 7393.17,2915.46 "/>
   <path class="fil1 str3" d="M6861.46 5115.46l490.49 0c18.48,132.14 72.79,230.13 162.38,293.96 89.59,63.83 219.49,95.75 389.15,95.75 143.9,0 253.08,-25.76 326.43,-77.27 73.35,-50.95 109.75,-127.1 109.75,-227.33 0,-146.7 -210.53,-267.64 -631.59,-363.95l-14.56 -3.36c-10.64,-2.24 -28,-6.16 -50.96,-11.2 -225.08,-49.27 -385.78,-104.7 -482.09,-166.29 -85.11,-54.32 -150.06,-128.23 -194.85,-220.61 -44.8,-92.39 -67.19,-201.58 -67.19,-327.56 0,-235.17 80.07,-415.46 239.64,-540.89 159.58,-125.42 389.71,-188.13 691.51,-188.13 282.2,0 502.81,66.63 661.83,200.45 159.02,133.82 242.44,321.96 251.4,565.53l-477.05 0c-8.96,-117.03 -53.75,-206.06 -134.38,-267.65 -81.19,-61.03 -195.98,-91.83 -346.04,-91.83 -129.9,0 -230.12,25.2 -300.67,76.15 -70.55,50.96 -105.83,123.75 -105.83,217.81 0,127.67 137.18,223.41 411.54,286.68 74.47,17.92 132.15,31.36 173.58,41.44 176.38,44.79 301.24,79.51 375.15,104.7 73.35,25.2 137.74,53.2 192.61,83.43 98.55,54.88 171.9,127.11 221.17,217.25 49.28,90.15 73.91,198.22 73.91,324.2 0,251.4 -84.55,446.26 -254.2,584.56 -169.66,138.3 -408.75,207.17 -716.7,207.17 -304.04,0 -542.57,-70.55 -715.59,-211.65 -173.01,-140.54 -265.96,-341.55 -278.84,-601.36z"/>
   <path class="fil2 str4" d="M9522.08 561.35c138.07,0 250,111.93 250,250 0,138.07 -111.93,250 -250,250 -138.07,0 -250,-111.93 -250,-250 0,-138.07 111.93,-250 250,-250z"/>
   <polygon class="fil1 str3" points="9278.71,2918.51 9278.71,1354.1 9769.73,1354.1 9769.73,2918.51 "/>
   <polygon class="fil1 str3" points="10661.88,2918.51 10001.41,1354.1 10545.46,1354.1 10921.8,2476.59 11301.59,1354.1 11820.29,1354.1 11163.28,2918.51 "/>
   <polygon class="fil1 str3" points="13783.25,2918.51 14401.64,2119.61 13810.32,1354.1 14371.09,1354.1 14695.56,1824.51 15017.72,1354.1 15560.05,1354.1 14982.57,2114.21 15595.2,2918.51 15021.18,2918.51 14681.72,2423.56 14347.46,2918.51 "/>
   <path class="fil1 str3" d="M13116.21 2459.48l491 0c-49.55,164.98 -149.26,293.63 -299.68,387.41 -150.41,93.29 -333.66,139.94 -550.36,139.94 -265.68,0 -476.6,-76.11 -631.62,-227.83 -155.61,-152.22 -233.41,-358.45 -233.41,-618.19 0,-256.32 76.65,-458.12 229.37,-605.92 153.3,-147.8 362.49,-221.45 628.17,-221.45 281.81,0 499.07,72.67 652.37,218.01 152.72,145.34 229.37,352.55 229.37,621.14 0,29.95 0,52.05 -0.57,67.27 -0.58,14.73 -2.32,28.97 -4.04,42.23l-1226.37 0c6.91,122.75 42.07,215.55 105.47,277.91 63.39,62.36 155.02,93.3 274.31,93.3 84.72,0 153.88,-14.24 207.47,-42.23 54.18,-28.48 96.82,-72.18 128.52,-131.59zm-715.77 -471.38l722.68 0c-4.61,-105.57 -37.46,-186.1 -98.55,-241.09 -61.66,-55.49 -149.83,-82.98 -264.51,-82.98 -106.62,0 -190.76,27.98 -252.43,83.47 -61.09,55.98 -96.82,136.01 -107.19,240.6z"/>
  </g>
 </g>
</svg>
